PathFileType	4	(X/Y/Z)	OpenSim_Sub09_EMGStiffKnee_Magnet.trc
DataRate	CameraRate	NumFrames	NumMarkers	Units	OrigDataRate	OrigDataStartFrame	OrigNumFrames
100	100	40	8	m	100	6637	7584
Frame#	Time	torso_imu_offset_imu	pelvis_imu_offset_imu	tibia_r_imu_offset_imu	femur_r_imu_offset_imu	tibia_l_imu_offset_imu	femur_l_imu_offset_imu	toes_r_imu_offset_imu	toes_l_imu_offset_imu
				X1	Y1	Z1	X2	Y2	Z2	X3	Y3	Z3	X4	Y4	Z4	X5	Y5	Z5	X6	Y6	Z6	X7	Y7	Z7	X8		Y8	Z8	

6637	66.36000000	-0.90991376	-0.26598918	0.00448407	-0.60481898	0.35293074	-0.65396348	-0.24035279	-0.85714660	-0.07818277	-0.79919522	-0.28700285	-0.17489719	-0.63607271	0.45118077	0.27754007	-0.67520765	0.35225960	0.34166837	-0.86757064	-0.22881787	-0.08750990	-0.75001891	-0.13999658	-0.36190763
6638	66.37000000	-0.90746992	-0.26594666	0.00512173	-0.61011886	0.36324096	-0.65319349	-0.27001382	-0.84766583	-0.09044047	-0.80452497	-0.28502465	-0.17831567	-0.62670735	0.45517063	0.28931616	-0.67369678	0.35571554	0.33841207	-0.87396942	-0.21528071	-0.12907005	-0.75013050	-0.13690834	-0.35904593
6639	66.38000000	-0.90489019	-0.26992629	0.00916380	-0.60958037	0.37033491	-0.65144626	-0.29489801	-0.84211045	-0.09941957	-0.81017853	-0.27346956	-0.16699342	-0.62660200	0.46196881	0.29068387	-0.66459315	0.35333857	0.35205510	-0.86162029	-0.19434384	-0.16313877	-0.75251983	-0.13707447	-0.36121826
6640	66.39000000	-0.91069217	-0.27059754	0.01368382	-0.60141721	0.37221244	-0.65359702	-0.32882001	-0.82628892	-0.11160907	-0.80609975	-0.26456078	-0.17554853	-0.62055407	0.46421124	0.29138096	-0.66448031	0.35924452	0.34578791	-0.84862642	-0.18142432	-0.20194980	-0.74991694	-0.13497238	-0.35953199
6641	66.40000000	-0.91377682	-0.27040337	0.01568269	-0.59626713	0.38075947	-0.65395653	-0.35253942	-0.81088499	-0.11435940	-0.81374762	-0.25836942	-0.16984876	-0.61614830	0.47226789	0.30084425	-0.65820573	0.36221469	0.35626345	-0.83731407	-0.16130236	-0.24458697	-0.75877688	-0.13454964	-0.35515123
6642	66.41000000	-0.90951737	-0.27226049	0.02232511	-0.60067513	0.37892330	-0.65617002	-0.38577346	-0.80247489	-0.12746068	-0.81877400	-0.25232097	-0.17396298	-0.61168243	0.48178439	0.29163753	-0.65952021	0.36390115	0.35247254	-0.81562242	-0.14373684	-0.27802600	-0.75686444	-0.13702889	-0.35233834
6643	66.42000000	-0.90906673	-0.27432872	0.02683444	-0.59316774	0.38868699	-0.65452181	-0.41178559	-0.78865737	-0.13591207	-0.81907905	-0.24209644	-0.17229487	-0.61367300	0.48198196	0.29938605	-0.66301673	0.36833593	0.36035081	-0.79031277	-0.12928953	-0.31811011	-0.76317530	-0.13299125	-0.35251146
6644	66.43000000	-0.90930012	-0.27687680	0.03193885	-0.59252347	0.39170180	-0.65411612	-0.44362810	-0.76984333	-0.13592523	-0.82347680	-0.23555523	-0.17718395	-0.61012683	0.48815253	0.30183584	-0.65000435	0.37061017	0.36530497	-0.77412864	-0.10984205	-0.33859272	-0.76613216	-0.13224847	-0.34818432
6645	66.44000000	-0.90738906	-0.27060733	0.02935902	-0.58871722	0.39311400	-0.65657713	-0.46766645	-0.75164129	-0.15004315	-0.82373664	-0.22724959	-0.17115710	-0.60309849	0.49087534	0.30620724	-0.64966990	0.37716697	0.37012493	-0.74814147	-0.10479708	-0.35931056	-0.76426986	-0.13502959	-0.34959016
6646	66.45000000	-0.90692063	-0.27390796	0.03751526	-0.58280306	0.40336967	-0.65711818	-0.49900718	-0.72442616	-0.14948084	-0.82972386	-0.22139938	-0.17281905	-0.60293579	0.49442714	0.30409475	-0.63948039	0.37711531	0.36585444	-0.72061295	-0.08907016	-0.37234601	-0.75903377	-0.12850465	-0.35290797
6647	66.46000000	-0.90714773	-0.28050763	0.04227240	-0.57574006	0.40684739	-0.65943982	-0.53144661	-0.70899127	-0.15835247	-0.83122734	-0.20894320	-0.17600364	-0.59723599	0.50575419	0.30722847	-0.63631982	0.38816489	0.36982936	-0.70388425	-0.07915708	-0.38920255	-0.77202503	-0.13052729	-0.34418306
6648	66.47000000	-0.90477909	-0.28308673	0.05322641	-0.57980095	0.40225131	-0.66149002	-0.55793263	-0.68908018	-0.15733732	-0.82655098	-0.20599313	-0.17574802	-0.59018164	0.50444663	0.31217660	-0.64086020	0.38446353	0.36809765	-0.68478435	-0.07702838	-0.39409497	-0.77113025	-0.12663790	-0.34338917
6649	66.48000000	-0.90696512	-0.27927416	0.05812395	-0.57250384	0.40834735	-0.66642976	-0.57733970	-0.66613875	-0.16617919	-0.83266849	-0.20441796	-0.18053343	-0.58551806	0.50586957	0.30998045	-0.63531619	0.39027414	0.36981487	-0.67618489	-0.06700043	-0.40515253	-0.77087017	-0.12607990	-0.34330530
6650	66.49000000	-0.90331164	-0.27657751	0.06205725	-0.56719804	0.40665689	-0.66661426	-0.60475317	-0.64304135	-0.17231094	-0.83097335	-0.19634722	-0.17513610	-0.58339578	0.51205116	0.30984630	-0.63022380	0.39090413	0.37042946	-0.66245206	-0.06235844	-0.42595464	-0.76669932	-0.12619503	-0.34602726
6651	66.50000000	-0.90068770	-0.27860722	0.06907723	-0.56738152	0.41106640	-0.66663421	-0.62960333	-0.62228086	-0.17681418	-0.83698231	-0.19171156	-0.16569651	-0.58158506	0.52281425	0.30464323	-0.63057007	0.39452069	0.36738760	-0.64957854	-0.05236624	-0.44471018	-0.76631111	-0.12229992	-0.33730098
6652	66.51000000	-0.90209305	-0.27893088	0.06728966	-0.56291030	0.40284951	-0.67021705	-0.64323202	-0.59778737	-0.18892121	-0.83565880	-0.19332781	-0.16527637	-0.57762742	0.53045608	0.30647142	-0.62637692	0.40298984	0.37412334	-0.64149963	-0.04351303	-0.46761245	-0.76638125	-0.11947244	-0.33838406
6653	66.52000000	-0.90707993	-0.27852108	0.07071239	-0.56327783	0.40871084	-0.68045960	-0.66268055	-0.56845277	-0.19484641	-0.83548584	-0.19561180	-0.15878138	-0.57292662	0.52970426	0.30027591	-0.62693708	0.40982661	0.36799185	-0.62581987	-0.03666221	-0.48480775	-0.77065377	-0.12210770	-0.34123643
6654	66.53000000	-0.90083722	-0.28144040	0.07981079	-0.55243798	0.40144986	-0.67554269	-0.67828856	-0.54464729	-0.20353966	-0.82950474	-0.19753517	-0.15611506	-0.56904204	0.54664264	0.29655203	-0.61793771	0.41454626	0.37095398	-0.61041222	-0.03475933	-0.50133622	-0.77132208	-0.11373015	-0.34127904
6655	66.54000000	-0.90244513	-0.27260639	0.08428844	-0.55370927	0.39871548	-0.68415371	-0.69612583	-0.52468543	-0.22201494	-0.83063597	-0.19977735	-0.14959543	-0.56451706	0.55216083	0.29427967	-0.62224286	0.41651681	0.37926536	-0.60237661	-0.02066321	-0.52020774	-0.77277181	-0.11286330	-0.34149897
6656	66.55000000	-0.90456293	-0.27887330	0.08645542	-0.55176880	0.39261445	-0.68423386	-0.70584995	-0.49164699	-0.23302295	-0.83311764	-0.20156561	-0.14475806	-0.56256044	0.56020840	0.29128806	-0.61042976	0.42482366	0.36202764	-0.58660157	-0.01712663	-0.53679101	-0.78028220	-0.11144584	-0.33737511
6657	66.56000000	-0.90737522	-0.26707742	0.09257815	-0.55153897	0.39197694	-0.69340926	-0.72281327	-0.46598488	-0.24269808	-0.83074431	-0.20581453	-0.13970207	-0.55674746	0.56941056	0.29294205	-0.60932054	0.43360773	0.36018514	-0.56947043	-0.01342238	-0.55713549	-0.77242972	-0.10290379	-0.33454166
6658	66.57000000	-0.90559090	-0.26795129	0.09340929	-0.54973804	0.39458783	-0.68969220	-0.73698687	-0.43835893	-0.25223796	-0.83471215	-0.20599179	-0.13934694	-0.54792264	0.57586021	0.28893115	-0.60986860	0.44289203	0.36064797	-0.55737186	-0.00656590	-0.57675225	-0.77349199	-0.09611344	-0.33472018
6659	66.58000000	-0.90321383	-0.26647483	0.09445028	-0.54911198	0.38514687	-0.69339328	-0.74601848	-0.42358895	-0.26442223	-0.83306249	-0.20956949	-0.13933905	-0.54132642	0.58909674	0.28081520	-0.61005877	0.44329756	0.35805665	-0.54043691	-0.00808110	-0.58567113	-0.77877106	-0.08935386	-0.33277782
6660	66.59000000	-0.90292958	-0.26414254	0.10549456	-0.54711791	0.37384504	-0.69089244	-0.75354918	-0.39679501	-0.26603404	-0.83093302	-0.21607674	-0.13954299	-0.53503177	0.59396888	0.28239496	-0.60604871	0.44726688	0.36057097	-0.53176338	-0.00113707	-0.59572976	-0.77669028	-0.08683228	-0.32785806
6661	66.60000000	-0.90530626	-0.26034549	0.10600825	-0.54224055	0.37317080	-0.69726913	-0.75815368	-0.38476740	-0.26859199	-0.82649721	-0.21843101	-0.13261171	-0.52615638	0.60247853	0.27828524	-0.60393396	0.45152560	0.35226896	-0.52036188	0.01517420	-0.60825886	-0.78299367	-0.08465961	-0.33051524
6662	66.61000000	-0.90731202	-0.25395719	0.10795123	-0.54637883	0.37180452	-0.70022110	-0.76264404	-0.37482665	-0.26483586	-0.83011289	-0.21863530	-0.13189266	-0.52408331	0.60887240	0.27291505	-0.59760553	0.46008701	0.34847666	-0.50547940	0.02853727	-0.62133401	-0.78184109	-0.08268474	-0.31784675
6663	66.62000000	-0.91201884	-0.24974268	0.10545189	-0.54441774	0.36560502	-0.69991390	-0.76741240	-0.36599849	-0.26691886	-0.83094017	-0.21663809	-0.13248262	-0.51597519	0.62205803	0.27224045	-0.59726215	0.46510219	0.35532052	-0.50134511	0.03293253	-0.62644353	-0.78137083	-0.07636772	-0.31422632
6664	66.63000000	-0.90840385	-0.24517156	0.11366419	-0.54574727	0.36112214	-0.70175273	-0.76751236	-0.35789069	-0.26696751	-0.82649293	-0.21672391	-0.12841571	-0.50938209	0.62686575	0.26577681	-0.59750019	0.46291062	0.35384188	-0.48709433	0.03951865	-0.62473289	-0.78616334	-0.07149948	-0.31489700
6665	66.64000000	-0.90762656	-0.24578975	0.11249218	-0.54846032	0.35743789	-0.70624974	-0.77394731	-0.35062389	-0.27227046	-0.82869694	-0.21276014	-0.12114610	-0.49852040	0.63728606	0.25807335	-0.59560723	0.46671803	0.35153852	-0.48751583	0.03790483	-0.62410845	-0.78607696	-0.06978777	-0.30471919
6666	66.65000000	-0.91240777	-0.23151932	0.11110781	-0.54557379	0.34712393	-0.70648966	-0.77425012	-0.36018334	-0.26126253	-0.82445850	-0.21055845	-0.12118274	-0.49185864	0.64654794	0.25511512	-0.59125243	0.47129818	0.34470977	-0.49407494	0.03992501	-0.62636892	-0.79294751	-0.06155625	-0.29068865
6667	66.66000000	-0.91491136	-0.22623345	0.11362181	-0.54975941	0.34053093	-0.70394716	-0.77421177	-0.36313717	-0.26250319	-0.83198537	-0.20631035	-0.11282260	-0.48334500	0.65568855	0.25220121	-0.59128177	0.47553153	0.34413105	-0.49580985	0.03412367	-0.62326242	-0.79365064	-0.05413743	-0.28593586
6668	66.67000000	-0.91525829	-0.22391668	0.10925695	-0.54550477	0.33202635	-0.70100959	-0.76815537	-0.36865380	-0.25700514	-0.83732975	-0.20860724	-0.10818282	-0.47456432	0.65972101	0.24813207	-0.58698329	0.48198565	0.34259927	-0.50434327	0.03507631	-0.61232269	-0.79752877	-0.05456488	-0.27723283
6669	66.68000000	-0.91286355	-0.22428361	0.10882944	-0.55256535	0.32588408	-0.70275248	-0.76368329	-0.38066607	-0.24516384	-0.83185267	-0.19870784	-0.09535847	-0.46422325	0.67626644	0.23367754	-0.59116211	0.48856886	0.33565205	-0.50618907	0.03428390	-0.61228833	-0.80253319	-0.04607243	-0.27052948
6670	66.69000000	-0.91920266	-0.21616164	0.10697170	-0.56135406	0.31350524	-0.70684093	-0.75450523	-0.39529976	-0.23581229	-0.82922855	-0.19816477	-0.08542137	-0.45507349	0.69081366	0.23015121	-0.59010607	0.49515312	0.32851788	-0.52284090	0.02323105	-0.59572676	-0.80692669	-0.04367533	-0.25987580
6671	66.70000000	-0.91964158	-0.21394795	0.10021330	-0.56191841	0.30700854	-0.70962276	-0.75754183	-0.40972097	-0.21860993	-0.82894648	-0.19200364	-0.07718416	-0.45117707	0.69299264	0.21985240	-0.58557645	0.49939509	0.29795358	-0.55293158	0.02293347	-0.56367066	-0.81171765	-0.03359974	-0.24636835
6672	66.71000000	-0.92367353	-0.20359344	0.09535079	-0.55979203	0.29616217	-0.70644698	-0.75556561	-0.42368794	-0.19537524	-0.83536666	-0.19535478	-0.06134397	-0.43441896	0.70569592	0.20909426	-0.58775469	0.51199684	0.31122386	-0.59223642	0.00493564	-0.52375635	-0.81680939	-0.02621370	-0.23322954
6673	66.72000000	-0.92842710	-0.20290783	0.08843012	-0.55330689	0.29781683	-0.71289748	-0.75743920	-0.41447054	-0.18545436	-0.83353632	-0.20146611	-0.05079133	-0.42058664	0.71498360	0.20609369	-0.59043141	0.51915957	0.30306499	-0.61841083	-0.00873780	-0.49408601	-0.81916875	-0.02255901	-0.21456109
6674	66.73000000	-0.92647917	-0.19744405	0.08992154	-0.55053942	0.29214638	-0.71590339	-0.75813252	-0.41650484	-0.18275156	-0.83305747	-0.20961101	-0.04812921	-0.40953141	0.72401163	0.20283670	-0.59233295	0.52331309	0.28810109	-0.63702798	-0.01953180	-0.46026470	-0.82591038	-0.00983090	-0.21074216
6675	66.74000000	-0.93071077	-0.18889267	0.08804453	-0.55068165	0.29104959	-0.71370479	-0.74775153	-0.43245997	-0.17875533	-0.83100666	-0.21478008	-0.04509690	-0.40290875	0.72814726	0.20676458	-0.59733658	0.53010674	0.28796120	-0.65441043	-0.02653190	-0.44231926	-0.83290637	0.00093103	-0.18073749
6676	66.75000000	-0.93303479	-0.18580571	0.08523788	-0.54853446	0.29571096	-0.71118931	-0.73995957	-0.45286711	-0.15885003	-0.83087764	-0.20587266	-0.04978623	-0.39218765	0.73958679	0.20464746	-0.59342672	0.53060940	0.27746812	-0.66082139	-0.02863340	-0.42291897	-0.84101263	0.01782457	-0.15994780
